<svg aria-hidden="true" style="position: absolute; width: 0; height: 0; overflow: hidden;" version="1.1" xmlns="http://www.w3.org/2000/svg" xmlns:xlink="http://www.w3.org/1999/xlink">
<defs>
<symbol id="icon-left" viewBox="0 0 24 24">
<path d="M13 20c-0.802 0-1.555-0.312-2.122-0.879l-7.121-7.121 7.122-7.121c1.133-1.133 3.11-1.133 4.243 0 0.566 0.566 0.878 1.32 0.878 2.121s-0.312 1.555-0.879 2.122l-2.878 2.878 2.878 2.879c0.567 0.566 0.879 1.32 0.879 2.121s-0.312 1.555-0.879 2.122c-0.566 0.566-1.319 0.878-2.121 0.878zM6.585 12l5.708 5.707c0.378 0.378 1.037 0.377 1.414 0 0.189-0.189 0.293-0.439 0.293-0.707s-0.104-0.518-0.293-0.707l-4.292-4.293 4.292-4.293c0.189-0.189 0.293-0.44 0.293-0.707s-0.104-0.518-0.293-0.707c-0.378-0.379-1.037-0.378-1.414-0.001l-5.708 5.708z"></path>
</symbol>
<symbol id="icon-right" viewBox="0 0 24 24">
<path d="M10 20c-0.802 0-1.555-0.312-2.122-0.879-0.566-0.566-0.878-1.32-0.878-2.121s0.312-1.555 0.879-2.122l2.878-2.878-2.878-2.879c-0.567-0.566-0.879-1.32-0.879-2.121s0.312-1.555 0.879-2.122c1.133-1.132 3.109-1.133 4.243 0.001l7.121 7.121-7.122 7.121c-0.566 0.567-1.319 0.879-2.121 0.879zM10 6c-0.268 0-0.518 0.104-0.707 0.292-0.189 0.19-0.293 0.441-0.293 0.708s0.104 0.518 0.293 0.707l4.292 4.293-4.292 4.293c-0.189 0.189-0.293 0.439-0.293 0.707s0.104 0.518 0.293 0.707c0.378 0.379 1.037 0.378 1.414 0.001l5.708-5.708-5.708-5.707c-0.189-0.189-0.439-0.293-0.707-0.293z"></path>
</symbol>
</defs>
</svg>
